<?xml version="1.0" standalone="no"?>
<!DOCTYPE svg PUBLIC "-//W3C//DTD SVG 20010904//EN"
 "http://www.w3.org/TR/2001/REC-SVG-20010904/DTD/svg10.dtd">
<svg version="1.0" xmlns="http://www.w3.org/2000/svg"
 width="539.000000pt" height="539.000000pt" viewBox="0 0 539.000000 539.000000"
 preserveAspectRatio="xMidYMid meet">
<metadata>
Created by potrace 1.15, written by Peter Selinger 2001-2017
</metadata>
<g transform="translate(0.000000,539.000000) scale(0.100000,-0.100000)"
fill="#000000" stroke="none">
<path d="M2535 4553 c-165 -18 -444 -96 -630 -176 -257 -110 -383 -195 -594
-401 -163 -159 -249 -282 -384 -551 -62 -123 -127 -284 -127 -314 0 -4 20 -6
45 -6 l45 0 16 55 c8 30 18 64 21 75 13 45 86 201 130 278 60 105 151 233 228
321 131 150 403 351 612 452 103 50 273 118 273 109 0 -2 25 5 55 15 84 29
267 53 405 53 284 -1 567 -68 845 -203 235 -114 405 -244 501 -385 57 -84 101
-147 162 -229 33 -45 36 -47 43 -27 5 11 11 21 13 21 3 0 21 -24 41 -52 38
-57 43 -57 20 -1 -8 20 -13 38 -11 40 2 2 23 -15 46 -39 l41 -43 -30 62 c-32
64 -131 211 -184 273 -95 112 -315 322 -343 328 -8 2 -14 7 -14 10 0 4 -17 16
-37 27 -21 10 -61 33 -89 51 -28 18 -75 43 -105 54 -30 12 -58 25 -64 30 -28
22 -342 116 -353 106 -2 -2 28 -13 66 -25 39 -11 90 -30 113 -41 24 -11 35
-18 25 -15 -238 70 -400 96 -626 102 -224 6 -230 22 -10 25 76 1 137 4 136 6
-14 14 -198 24 -281 15z"/>
<path d="M1422 3832 c-69 -69 -198 -319 -271 -525 -35 -99 -101 -363 -127
-507 -25 -135 -25 -359 -1 -422 22 -58 82 -113 139 -129 63 -17 152 6 156 40
3 20 1 23 -15 17 -96 -37 -157 -32 -202 19 -36 42 -49 84 -57 190 -25 320 142
900 349 1219 57 86 86 108 114 84 13 -10 15 -28 10 -99 -6 -101 -47 -232 -107
-349 -42 -79 -49 -105 -27 -98 32 11 94 148 140 308 29 103 29 219 1 257 -31
42 -57 40 -102 -5z"/>
<path d="M1900 3843 c-39 -8 -270 -181 -270 -203 0 -4 9 -10 20 -13 12 -3 20
0 20 8 0 8 7 11 19 8 11 -3 21 2 24 11 4 9 13 16 21 16 8 0 25 12 38 28 12 15
41 37 63 48 22 12 45 30 51 42 5 11 21 30 35 41 24 21 23 22 -21 14z"/>
<path d="M3855 3447 c4 -52 8 -167 9 -255 1 -139 -1 -162 -16 -179 -24 -26
-23 -48 2 -50 11 -1 20 2 20 8 0 5 7 9 15 9 17 0 18 -5 45 -255 12 -104 35
-284 52 -400 17 -115 33 -245 37 -287 6 -72 21 -111 38 -95 3 4 -3 69 -16 145
-23 142 -94 700 -106 834 l-7 77 191 61 c105 34 191 67 191 72 0 6 -8 8 -17 5
-115 -36 -359 -104 -364 -101 -7 4 -14 71 -29 279 -11 145 -23 209 -41 221 -8
4 -9 -22 -4 -89z"/>
<path d="M4493 3498 c-27 -13 -28 -21 -8 -38 8 -7 15 -26 15 -42 0 -38 -72
-159 -131 -220 -25 -27 -40 -48 -33 -48 18 0 75 67 119 140 l40 65 6 -39 c11
-65 66 -78 99 -24 43 71 45 172 3 204 -21 16 -79 17 -110 2z"/>
<path d="M4035 3481 c-3 -7 -9 -46 -12 -89 -6 -73 -8 -79 -51 -130 -25 -29
-43 -54 -41 -57 2 -2 23 19 46 46 l42 50 6 -38 c12 -68 30 -128 40 -128 6 0
13 50 17 110 6 109 22 177 37 159 4 -5 15 -36 25 -69 34 -111 81 -185 119
-185 16 0 15 4 -10 28 -37 34 -56 70 -78 147 -23 79 -42 115 -61 115 -19 0
-41 -52 -50 -120 -6 -47 -8 -51 -16 -29 -10 26 -4 85 14 137 10 27 9 35 -4 48
-11 11 -18 13 -23 5z"/>
<path d="M3588 3340 c-15 -11 -38 -45 -52 -74 -43 -90 -188 -205 -241 -192
-29 7 -53 59 -56 116 -2 61 -8 80 -24 80 -16 0 -27 -33 -23 -68 2 -16 -22 -55
-82 -132 -47 -59 -90 -110 -96 -113 -17 -8 -152 104 -185 152 -39 59 -40 121
-3 158 22 22 32 25 72 20 26 -2 55 -8 66 -12 14 -6 18 -4 14 6 -6 18 -86 34
-123 25 -15 -4 -40 -20 -56 -36 -32 -32 -39 -87 -18 -145 10 -27 8 -36 -21
-85 -43 -72 -96 -137 -126 -157 -20 -13 -30 -14 -49 -5 -20 10 -25 9 -25 -3 0
-10 11 -15 33 -15 47 0 98 47 158 145 l51 84 47 -43 c25 -24 66 -62 91 -84
l45 -41 -36 -73 c-48 -95 -52 -110 -36 -132 23 -31 62 -13 94 41 23 40 28 60
28 119 1 40 5 78 11 86 6 7 43 55 84 107 l74 93 22 -50 c16 -37 30 -53 47 -57
39 -10 110 27 177 91 57 54 61 56 78 41 42 -38 75 -17 116 76 14 31 27 57 30
57 12 0 47 -46 67 -87 11 -23 26 -78 33 -122 19 -117 12 -129 -100 -169 -114
-41 -121 -46 -105 -66 11 -13 16 -13 34 -2 12 7 55 26 95 41 52 20 72 33 72
46 0 10 4 20 9 24 30 18 19 -237 -15 -369 -44 -171 -80 -151 -78 44 1 85 6
119 28 180 14 41 19 67 12 57 -21 -27 -55 -163 -62 -248 -7 -77 13 -180 38
-195 32 -20 92 141 109 295 7 64 8 124 1 181 -8 76 -7 88 9 116 11 17 19 35
19 40 0 5 -5 1 -11 -8 -5 -10 -13 -18 -18 -18 -4 0 -15 44 -25 98 -10 60 -27
116 -44 147 -26 49 -28 50 -78 53 -39 2 -56 -2 -76 -18z"/>
<path d="M2541 3251 c-28 -51 -49 -632 -32 -850 20 -251 61 -377 134 -418 59
-33 110 -1 157 100 44 93 103 337 82 337 -4 0 -20 -53 -34 -117 -32 -147 -61
-225 -100 -269 -34 -39 -75 -45 -104 -17 -49 50 -100 230 -90 319 3 27 15 76
26 109 35 103 65 395 40 395 -6 0 -10 -31 -10 -72 0 -85 -22 -230 -47 -308
l-17 -55 -7 160 c-7 144 4 541 15 576 2 8 7 26 10 42 4 15 10 27 15 27 11 0
31 -102 31 -159 0 -76 12 -151 23 -144 22 14 -16 315 -44 350 -16 19 -37 16
-48 -6z"/>
<path d="M2336 3201 c-4 -5 -9 -40 -13 -77 -12 -131 -132 -304 -210 -304 -70
0 -123 96 -123 221 0 76 -14 99 -60 99 -39 0 -83 -40 -108 -97 -32 -76 -36
-122 -14 -164 l19 -37 -42 -60 c-114 -168 -252 -322 -354 -394 -10 -7 -20 -25
-23 -40 -5 -25 -3 -26 16 -16 12 6 71 61 131 122 108 108 212 243 268 348 15
28 33 58 39 66 7 8 26 55 43 105 16 50 35 92 40 94 6 2 20 -38 32 -88 24 -99
54 -149 102 -169 63 -26 120 14 189 133 45 78 47 80 54 51 28 -118 34 -138 43
-139 6 0 13 47 17 110 6 109 22 177 37 159 4 -5 15 -36 25 -69 10 -33 24 -71
32 -85 l13 -25 1 23 c0 29 -27 127 -47 165 -29 57 -65 15 -79 -93 -6 -47 -8
-51 -16 -29 -10 26 -4 85 14 137 10 27 9 35 -4 48 -10 10 -18 12 -22 5z"/>
<path d="M758 3040 c-182 -33 -389 -149 -496 -278 -142 -170 -212 -379 -184
-544 15 -83 50 -160 99 -214 47 -50 57 -28 14 29 -88 115 -109 227 -72 381 44
183 154 338 324 454 150 103 356 157 513 133 76 -11 93 -7 94 20 0 20 -212 34
-292 19z"/>
<path d="M1116 2993 c-15 -16 -3 -40 30 -58 48 -26 117 -104 148 -168 84 -172
71 -548 -26 -754 -14 -29 -44 -60 -98 -102 -106 -82 -222 -193 -310 -296 -41
-47 -77 -82 -80 -78 -9 11 -27 118 -49 308 -74 612 -89 714 -112 758 -10 17
-39 24 -39 10 0 -5 7 -30 15 -56 20 -67 57 -314 110 -733 l45 -361 -35 -76
c-54 -117 -45 -162 25 -122 43 25 50 19 50 -37 1 -50 2 -52 16 -33 11 14 14
34 11 65 l-5 45 90 89 c150 148 249 286 343 477 33 66 46 82 99 118 62 41 195
100 229 101 10 0 26 -7 35 -16 14 -15 17 -15 29 2 19 26 16 41 -9 47 -39 11
-119 -12 -216 -62 -53 -28 -97 -49 -99 -48 -1 2 9 38 22 81 40 129 58 275 52
406 -11 206 -48 319 -136 409 -48 49 -123 96 -135 84z m79 -1171 c-64 -116
-175 -264 -275 -364 -54 -54 -102 -98 -107 -98 -16 0 -25 83 -13 114 29 78
165 230 325 363 114 94 128 91 70 -15z"/>
<path d="M4757 2964 c-3 -5 8 -50 24 -99 22 -66 32 -121 37 -205 8 -111 21
-160 43 -160 7 0 9 12 5 33 -3 17 -9 73 -12 123 -6 84 -5 96 19 147 27 60 88
114 140 124 31 6 31 26 0 31 -35 5 -117 -70 -152 -139 -17 -34 -33 -55 -35
-48 -2 8 -12 48 -21 90 -16 75 -37 121 -48 103z"/>
<path d="M765 2925 c-18 -61 -10 -107 9 -60 8 20 10 -15 7 -137 -3 -163 7
-300 35 -455 28 -159 164 -523 164 -440 0 20 -52 161 -67 178 -7 8 -13 25 -13
37 0 11 -14 61 -30 111 -17 49 -36 124 -44 168 -20 107 -31 303 -18 303 6 0
12 -6 15 -12 2 -7 7 46 10 117 4 72 9 146 13 165 l6 35 -42 0 c-24 0 -44 -4
-45 -10z"/>
<path d="M5154 2896 c-22 -18 -28 -34 -32 -79 -4 -47 0 -63 21 -100 29 -48 75
-77 125 -77 32 0 112 53 120 80 3 9 -8 4 -24 -11 -85 -78 -172 -62 -205 38
-12 39 -6 50 31 55 19 2 26 10 28 32 8 71 -21 100 -64 62z"/>
<path d="M4377 2904 c-3 -5 8 -50 24 -99 22 -66 32 -121 37 -205 8 -111 21
-160 43 -160 7 0 9 12 5 33 -3 17 -9 73 -12 123 -6 84 -5 96 19 147 27 60 88
114 140 124 31 6 31 26 0 31 -35 5 -117 -70 -152 -139 -17 -34 -33 -55 -35
-48 -2 8 -12 48 -21 90 -16 75 -37 121 -48 103z"/>
<path d="M4153 2728 c-27 -13 -28 -21 -8 -38 11 -9 15 -33 15 -91 0 -85 12
-109 55 -109 30 0 51 29 71 97 17 59 8 115 -23 139 -21 16 -79 17 -110 2z"/>
<path d="M3046 2599 c-33 -26 -63 -83 -77 -148 -8 -39 -7 -56 5 -85 29 -69 57
-44 101 87 16 50 35 92 41 94 7 2 16 -22 23 -59 25 -126 82 -208 146 -208 32
0 83 37 116 83 43 62 100 167 90 167 -4 0 -28 -36 -52 -81 -67 -124 -136 -173
-200 -138 -12 6 -34 38 -50 72 -24 52 -29 75 -29 139 0 66 -3 79 -19 88 -31
16 -66 12 -95 -11z"/>
<path d="M1744 2346 c-22 -18 -28 -34 -32 -79 -4 -47 0 -63 21 -100 46 -78
125 -98 194 -48 40 29 133 144 133 164 0 13 -3 10 -65 -71 -55 -74 -96 -102
-146 -102 -43 0 -82 34 -100 87 -12 39 -6 50 31 55 19 2 26 10 28 32 8 71 -21
100 -64 62z"/>
<path d="M4260 1748 c-131 -208 -196 -294 -290 -389 -72 -72 -201 -173 -320
-251 -98 -64 -376 -194 -454 -212 -15 -4 -26 -9 -23 -13 17 -16 293 100 434
183 51 30 95 54 100 54 22 0 -116 -87 -222 -139 -276 -137 -565 -199 -882
-188 -109 3 -158 9 -170 18 -15 12 -16 12 -8 -1 7 -12 6 -13 -6 -4 -8 7 -45
17 -84 23 -38 7 -100 18 -137 25 -38 8 -68 10 -68 6 0 -15 102 -47 205 -66
139 -26 487 -26 630 0 457 81 809 289 1100 651 89 110 319 465 302 465 -2 0
-51 -73 -107 -162z"/>
<path d="M1466 1828 c49 -97 243 -293 374 -379 254 -168 462 -240 693 -244
155 -2 170 17 21 27 -250 17 -467 92 -683 237 -93 63 -236 196 -302 281 -60
78 -91 110 -105 110 -12 0 -12 -5 2 -32z"/>
</g>
</svg>
